Coordinates
version=1
nRows=14
nColumns=36
inDegrees=yes

Units are S.I. units (second, meters, Newtons, ...)
If the header above contains a line with 'inDegrees', this indicates whether rotational values are in degrees (yes) or radians (no).

endheader
time	pelvis_tilt	pelvis_list	pelvis_rotation	pelvis_tx	pelvis_ty	pelvis_tz	hip_flexion_r	hip_adduction_r	hip_rotation_r	knee_angle_r	knee_angle_r_beta	ankle_angle_r	subtalar_angle_r	mtp_angle_r	hip_flexion_l	hip_adduction_l	hip_rotation_l	knee_angle_l	knee_angle_l_beta	ankle_angle_l	subtalar_angle_l	mtp_angle_l	lumbar_extension	lumbar_bending	lumbar_rotation	arm_flex_r	arm_add_r	arm_rot_r	elbow_flex_r	pro_sup_r	arm_flex_l	arm_add_l	arm_rot_l	elbow_flex_l	pro_sup_l
      1.80000000	    -17.85914339	      4.62302405	     -9.79368023	      1.04024964	      0.93562211	      0.09315089	     41.00293894	    -14.00025744	     -5.19917461	     43.74969672	      0.76357625	      7.84615255	    -10.45813267	     -7.50000039	     43.32107894	     -7.49650100	     -4.85187913	     41.57647439	      0.72564637	     12.37013085	     -3.11322239	     -7.50000039	    -12.11918891	      0.01863747	      3.33372153	      4.15158916	    -26.04663175	     16.87972568	    103.21603567	     94.38054998	    -15.87183273	    -23.38910739	      8.61641087	    125.05839866	    104.10371016
      1.81666670	    -19.00989269	      5.17928841	     -9.45399155	      1.03589405	      0.91591236	      0.09079486	     46.80604620	    -15.04754339	     -4.30704805	     52.11854591	      0.90964023	     15.80602088	     -9.68379248	     -7.50000038	     49.22528079	     -7.92260888	     -4.97285892	     49.75484570	      0.86838588	     18.58644885	     -3.02591950	     -7.50000038	    -13.93183741	     -0.64280001	      3.13706516	      9.22265015	    -24.98714492	     17.29263218	    104.88816335	     94.70890495	    -11.57640195	    -22.38489158	      9.93128661	    123.68601423	    104.17107004
      1.83333330	    -20.21723448	      5.69741786	     -9.38015600	      1.02953422	      0.89862551	      0.09204752	     52.25115453	    -15.88005350	     -3.77360682	     58.90286425	      1.02804892	     21.83366696	     -8.44155457	     -7.50000036	     54.40698235	     -8.55972287	     -5.14967579	     56.18869589	      0.98067775	     22.60362865	     -3.38125194	     -7.50000036	    -16.13844075	     -1.26942906	      3.51553663	     16.20346004	    -24.21412934	     18.27022306	    105.45605366	     95.70797679	     -5.50234654	    -20.85968806	     12.38584927	    121.06979237	    104.19268621
      1.85000000	    -21.31699625	      6.13972870	     -9.50425497	      1.01811882	      0.87865824	      0.09127414	     57.12689000	    -16.38735760	     -3.32515041	     64.18331930	      1.12021025	     25.82528272	     -7.55136620	     -7.50000034	     58.88663216	     -9.25826045	     -5.24837242	     61.20536313	      1.06823511	     25.43296999	     -3.43581594	     -7.50000034	    -19.22612528	     -1.99685709	      3.70327886	     22.92699053	    -23.67167998	     19.60632099	    106.12603728	     94.43439454	      0.35003601	    -18.94108791	     14.12895481	    119.47128591	    102.75754895
      1.86666670	    -23.28195853	      6.66677416	     -9.59261642	      0.98456094	      0.85669468	      0.09163884	     63.08325964	    -16.67007351	     -2.89008501	     68.78608215	      1.20054361	     28.60354061	     -6.37811234	     -7.50000035	     64.57338960	    -10.10772648	     -5.36457480	     65.59408216	      1.14483270	     26.93004381	     -3.82336031	     -7.50000035	    -21.97494181	     -2.04655001	      3.53645995	     32.85799436	    -21.80459788	     21.77930787	    107.21519527	     96.73880521	     11.00907610	    -18.79762734	     16.68537382	    120.22636927	    104.12852192
      1.88333330	    -25.00657282	      7.08608303	     -9.71232239	      0.98114527	      0.84488532	      0.08271589	     67.91575091	    -16.94327979	     -2.65898498	     71.85840117	      1.25416570	     29.66192442	     -6.20296526	     -7.50000034	     69.10891730	    -10.47848101	     -5.11665492	     68.50862437	      1.19570106	     27.37137784	     -5.05794644	     -7.50000034	    -24.53001199	     -1.78015562	      3.12842975	     40.61453054	    -20.71765741	     24.31751388	    108.06178039	     98.41360184	     20.06116450	    -17.30890009	     17.32146526	    119.40999243	    104.16123483
      1.90000000	    -26.83691385	      7.45851321	     -9.84693958	      0.97101677	      0.83211450	      0.07475802	     72.20193093	    -17.15097361	     -2.49757922	     73.83812265	      1.28871835	     29.77485684	     -6.51286268	     -7.50000033	     73.21969955	    -10.72223830	     -4.85304998	     70.61124305	      1.23239868	     27.05482373	     -6.34163389	     -7.50000033	    -26.39694496	     -1.26518286	      2.73988390	     47.83924993	    -19.54446218	     27.36023403	    109.73640940	    100.19335202	     28.58325969	    -15.93018339	     19.03745098	    120.20137582	    104.41652474
      1.91666670	    -28.76456697	      7.74274340	     -9.82074028	      0.95429980	      0.82378775	      0.07500588	     76.05171147	    -17.12442211	     -2.30266942	     75.07070812	      1.31023103	     29.39457745	     -6.90913465	     -7.50000025	     77.11765745	    -10.83404854	     -4.47572390	     72.06986738	      1.25785648	     26.53987390	     -7.34829579	     -7.50000025	    -27.54845797	     -0.88355165	      3.08489078	     55.04577375	    -17.87946296	     28.61336358	    111.37966351	    106.49614645	     38.17121120	    -15.52970056	     22.11910683	    120.25894628	    104.96412696
      1.93333330	    -30.54194541	      8.13897639	     -9.77944085	      0.93812133	      0.81632751	      0.06314092	     79.73571396	    -17.20829367	     -1.98623551	     75.90738495	      1.32483379	     28.51893100	     -7.45587570	     -7.50000020	     80.70875465	    -10.67600810	     -4.20516359	     73.11321434	      1.27606632	     25.46782819	     -8.63255121	     -7.50000020	    -28.14218284	     -0.44408394	      3.61165504	     61.67543761	    -17.54724303	     31.55646573	    113.23700740	    106.72097306	     47.04493735	    -13.86123366	     24.90970456	    119.77483979	    105.53130344
      1.95000000	    -31.95414011	      8.46106606	     -9.65513367	      0.93332704	      0.81026524	      0.06038873	     82.57157338	    -17.29201147	     -1.64709653	     76.39279041	      1.33330572	     27.60681495	     -8.04951375	     -7.50000016	     83.51203310	    -10.25733993	     -3.77430516	     73.77191787	      1.28756286	     24.51426772	     -9.81206186	     -7.50000016	    -28.51516665	     -0.09498522	      4.23838112	     67.64184222	    -17.44791223	     35.13204689	    116.78757763	    106.35945745	     53.61218450	    -12.35108074	     26.85196489	    121.58454850	    106.04425507
      1.96666670	    -32.86300888	      8.73120645	     -9.56580495	      0.92798439	      0.80255758	      0.05669364	     84.76509651	    -17.35248426	     -1.18608922	     76.88090284	      1.34182489	     26.88546462	     -8.60506075	     -7.50000011	     85.65416971	     -9.73517557	     -3.33750605	     74.39729954	      1.29847783	     23.73064998	    -10.89689819	     -7.50000011	    -28.72740920	      0.11683107	      4.86976310	     72.79285727	    -17.78100203	     36.99584185	    120.60238492	    105.84803806	     60.15255307	    -10.23766516	     28.35492056	    122.18688590	    106.88321393
      1.98333330	    -33.35690602	      8.89239804	     -9.47456715	      0.92795826	      0.80740957	      0.05752931	     85.77127171	    -17.35969631	     -0.87910915	     76.70991249	      1.33884054	     26.15653344	     -9.13878378	     -7.50000007	     86.72266230	     -9.08217179	     -2.82126205	     74.42611673	      1.29898079	     23.20119045	    -11.71444684	     -7.50000007	    -29.43514565	      0.27323364	      5.13395546	     76.02206696	    -17.37125201	     38.02393972	    122.57341849	    104.41305133	     63.99739343	     -9.58189602	     28.26839582	    122.29491031	    106.72577067
      2.00000000	    -33.70778743	      8.99713445	     -9.35263380	      0.92130871	      0.80539194	      0.05854590	     86.37360910	    -17.28125592	     -0.60184922	     76.35463617	      1.33263980	     25.39347480	     -9.72008248	     -7.50000007	     87.37247561	     -8.57498397	     -2.46093153	     74.24905419	      1.29589046	     22.76530409	    -12.14773758	     -7.50000007	    -29.85803590	      0.30668661	      5.64348216	     78.96249555	    -16.34937437	     38.10311771	    124.41935654	    104.35535827	     67.74753285	     -8.70997272	     27.54685020	    123.65163832	    106.59522353
      2.01666670	    -33.87436887	      9.05374708	     -9.19057539	      0.91560662	      0.80447568	      0.05466276	     86.53803343	    -17.24211546	     -0.39637515	     75.83114550	      1.32350316	     24.73447843	    -10.20156075	     -7.50000007	     87.60651971	     -8.09864185	     -2.20066233	     73.88603565	      1.28955459	     22.30356189	    -12.56059831	     -7.50000007	    -30.06057092	      0.39182475	      5.93277927	     81.50115358	    -15.94911067	     37.60572557	    125.77599617	    104.27626049	     71.38494501	     -7.30342523	     25.59934417	    124.23524098	    106.26471264
